<svg viewBox="0 0 5519 5519" xmlns="http://www.w3.org/2000/svg" aria-hidden="true" class="logo-annamori-svg">
  <g id="sun">
    <circle class="sun-core" cx="2759.1" cy="2759.1" r="1427.553" fill="#1a1a1a" stroke="#1a1a1a" stroke-width="16" stroke-linejoin="round"/>
    <g class="ray ray-long" style="transform-origin: 2759.101px 1383.8px"><path d="M2650.863,1383.8 L2759.1,0 L2867.338,1383.8 Z" fill="#1a1a1a" stroke="#1a1a1a" stroke-width="16" stroke-linejoin="round"/></g>
    <g class="ray ray-short" style="transform-origin: 2974.244px 1400.733px"><path d="M2867.338,1383.8 L3108.288,554.421 L3081.15,1417.667 Z" fill="#1a1a1a" stroke="#1a1a1a" stroke-width="16" stroke-linejoin="round"/></g>
    <g class="ray ray-long" style="transform-origin: 3184.091px 1451.112px"><path d="M3081.15,1417.667 L3611.708,135.037 L3287.033,1484.557 Z" fill="#1a1a1a" stroke="#1a1a1a" stroke-width="16" stroke-linejoin="round"/></g>
    <g class="ray ray-short" style="transform-origin: 3383.473px 1533.696px"><path d="M3287.033,1484.557 L3772.479,770.227 L3479.913,1582.836 Z" fill="#1a1a1a" stroke="#1a1a1a" stroke-width="16" stroke-linejoin="round"/></g>
    <g class="ray ray-long" style="transform-origin: 3567.479px 1646.456px"><path d="M3479.913,1582.836 L4380.863,526.936 L3655.046,1710.076 Z" fill="#1a1a1a" stroke="#1a1a1a" stroke-width="16" stroke-linejoin="round"/></g>
    <g class="ray ray-short" style="transform-origin: 3731.583px 1786.613px"><path d="M3655.046,1710.076 L4337.479,1180.722 L3808.121,1863.151 Z" fill="#1a1a1a" stroke="#1a1a1a" stroke-width="16" stroke-linejoin="round"/></g>
    <g class="ray ray-long" style="transform-origin: 3871.741px 1950.718px"><path d="M3808.121,1863.151 L4991.261,1137.335 L3935.361,2038.285 Z" fill="#1a1a1a" stroke="#1a1a1a" stroke-width="16" stroke-linejoin="round"/></g>
    <g class="ray ray-short" style="transform-origin: 3984.5px 2134.724px"><path d="M3935.361,2038.285 L4747.969,1745.718 L4033.64,2231.164 Z" fill="#1a1a1a" stroke="#1a1a1a" stroke-width="16" stroke-linejoin="round"/></g>
    <g class="ray ray-long" style="transform-origin: 4067.085px 2334.105px"><path d="M4033.64,2231.164 L5383.16,1906.489 L4100.53,2437.047 Z" fill="#1a1a1a" stroke="#1a1a1a" stroke-width="16" stroke-linejoin="round"/></g>
    <g class="ray ray-short" style="transform-origin: 4117.463px 2543.953px"><path d="M4100.53,2437.047 L4963.775,2409.91 L4134.396,2650.86 Z" fill="#1a1a1a" stroke="#1a1a1a" stroke-width="16" stroke-linejoin="round"/></g>
    <g class="ray ray-long" style="transform-origin: 4134.396px 2759.097px"><path d="M4134.396,2650.86 L5518.196,2759.097 L4134.396,2867.335 Z" fill="#1a1a1a" stroke="#1a1a1a" stroke-width="16" stroke-linejoin="round"/></g>
    <g class="ray ray-short" style="transform-origin: 4117.463px 2974.241px"><path d="M4134.396,2867.335 L4963.775,3108.285 L4100.53,3081.147 Z" fill="#1a1a1a" stroke="#1a1a1a" stroke-width="16" stroke-linejoin="round"/></g>
    <g class="ray ray-long" style="transform-origin: 4067.085px 3184.089px"><path d="M4100.53,3081.147 L5383.16,3611.706 L4033.64,3287.031 Z" fill="#1a1a1a" stroke="#1a1a1a" stroke-width="16" stroke-linejoin="round"/></g>
    <g class="ray ray-short" style="transform-origin: 3984.501px 3383.47px"><path d="M4033.64,3287.031 L4747.969,3772.476 L3935.361,3479.91 Z" fill="#1a1a1a" stroke="#1a1a1a" stroke-width="16" stroke-linejoin="round"/></g>
    <g class="ray ray-long" style="transform-origin: 3871.741px 3567.476px"><path d="M3935.361,3479.91 L4991.261,4380.86 L3808.121,3655.043 Z" fill="#1a1a1a" stroke="#1a1a1a" stroke-width="16" stroke-linejoin="round"/></g>
    <g class="ray ray-short" style="transform-origin: 3731.584px 3731.58px"><path d="M3808.121,3655.043 L4337.479,4337.476 L3655.046,3808.118 Z" fill="#1a1a1a" stroke="#1a1a1a" stroke-width="16" stroke-linejoin="round"/></g>
    <g class="ray ray-long" style="transform-origin: 3567.48px 3871.738px"><path d="M3655.046,3808.118 L4380.863,4991.258 L3479.913,3935.358 Z" fill="#1a1a1a" stroke="#1a1a1a" stroke-width="16" stroke-linejoin="round"/></g>
    <g class="ray ray-short" style="transform-origin: 3383.474px 3984.497px"><path d="M3479.913,3935.358 L3772.479,4747.966 L3287.034,4033.637 Z" fill="#1a1a1a" stroke="#1a1a1a" stroke-width="16" stroke-linejoin="round"/></g>
    <g class="ray ray-long" style="transform-origin: 3184.092px 4067.082px"><path d="M3287.034,4033.637 L3611.709,5383.157 L3081.15,4100.527 Z" fill="#1a1a1a" stroke="#1a1a1a" stroke-width="16" stroke-linejoin="round"/></g>
    <g class="ray ray-short" style="transform-origin: 2974.244px 4117.46px"><path d="M3081.15,4100.527 L3108.288,4963.772 L2867.338,4134.393 Z" fill="#1a1a1a" stroke="#1a1a1a" stroke-width="16" stroke-linejoin="round"/></g>
    <g class="ray ray-long" style="transform-origin: 2759.101px 4134.393px"><path d="M2867.338,4134.393 L2759.1,5518.193 L2650.863,4134.393 Z" fill="#1a1a1a" stroke="#1a1a1a" stroke-width="16" stroke-linejoin="round"/></g>
    <g class="ray ray-short" style="transform-origin: 2543.957px 4117.46px"><path d="M2650.863,4134.393 L2409.913,4963.772 L2437.05,4100.527 Z" fill="#1a1a1a" stroke="#1a1a1a" stroke-width="16" stroke-linejoin="round"/></g>
    <g class="ray ray-long" style="transform-origin: 2334.109px 4067.082px"><path d="M2437.05,4100.527 L1906.492,5383.157 L2231.167,4033.637 Z" fill="#1a1a1a" stroke="#1a1a1a" stroke-width="16" stroke-linejoin="round"/></g>
    <g class="ray ray-short" style="transform-origin: 2134.728px 3984.497px"><path d="M2231.167,4033.637 L1745.721,4747.966 L2038.288,3935.358 Z" fill="#1a1a1a" stroke="#1a1a1a" stroke-width="16" stroke-linejoin="round"/></g>
    <g class="ray ray-long" style="transform-origin: 1950.721px 3871.738px"><path d="M2038.288,3935.358 L1137.338,4991.258 L1863.154,3808.118 Z" fill="#1a1a1a" stroke="#1a1a1a" stroke-width="16" stroke-linejoin="round"/></g>
    <g class="ray ray-short" style="transform-origin: 1786.617px 3731.58px"><path d="M1863.154,3808.118 L1180.725,4337.476 L1710.079,3655.043 Z" fill="#1a1a1a" stroke="#1a1a1a" stroke-width="16" stroke-linejoin="round"/></g>
    <g class="ray ray-long" style="transform-origin: 1646.459px 3567.476px"><path d="M1710.079,3655.043 L526.939,4380.86 L1582.839,3479.91 Z" fill="#1a1a1a" stroke="#1a1a1a" stroke-width="16" stroke-linejoin="round"/></g>
    <g class="ray ray-short" style="transform-origin: 1533.7px 3383.47px"><path d="M1582.839,3479.91 L770.23,3772.476 L1484.56,3287.031 Z" fill="#1a1a1a" stroke="#1a1a1a" stroke-width="16" stroke-linejoin="round"/></g>
    <g class="ray ray-long" style="transform-origin: 1451.115px 3184.089px"><path d="M1484.56,3287.031 L135.04,3611.706 L1417.67,3081.147 Z" fill="#1a1a1a" stroke="#1a1a1a" stroke-width="16" stroke-linejoin="round"/></g>
    <g class="ray ray-short" style="transform-origin: 1400.737px 2974.241px"><path d="M1417.67,3081.147 L554.424,3108.285 L1383.803,2867.335 Z" fill="#1a1a1a" stroke="#1a1a1a" stroke-width="16" stroke-linejoin="round"/></g>
    <g class="ray ray-long" style="transform-origin: 1383.803px 2759.097px"><path d="M1383.803,2867.335 L0.003,2759.097 L1383.803,2650.86 Z" fill="#1a1a1a" stroke="#1a1a1a" stroke-width="16" stroke-linejoin="round"/></g>
    <g class="ray ray-short" style="transform-origin: 1400.737px 2543.954px"><path d="M1383.803,2650.86 L554.424,2409.91 L1417.67,2437.047 Z" fill="#1a1a1a" stroke="#1a1a1a" stroke-width="16" stroke-linejoin="round"/></g>
    <g class="ray ray-long" style="transform-origin: 1451.115px 2334.106px"><path d="M1417.67,2437.047 L135.04,1906.489 L1484.56,2231.164 Z" fill="#1a1a1a" stroke="#1a1a1a" stroke-width="16" stroke-linejoin="round"/></g>
    <g class="ray ray-short" style="transform-origin: 1533.7px 2134.725px"><path d="M1484.56,2231.164 L770.23,1745.718 L1582.839,2038.285 Z" fill="#1a1a1a" stroke="#1a1a1a" stroke-width="16" stroke-linejoin="round"/></g>
    <g class="ray ray-long" style="transform-origin: 1646.459px 1950.718px"><path d="M1582.839,2038.285 L526.939,1137.335 L1710.079,1863.151 Z" fill="#1a1a1a" stroke="#1a1a1a" stroke-width="16" stroke-linejoin="round"/></g>
    <g class="ray ray-short" style="transform-origin: 1786.617px 1786.614px"><path d="M1710.079,1863.151 L1180.725,1180.722 L1863.154,1710.076 Z" fill="#1a1a1a" stroke="#1a1a1a" stroke-width="16" stroke-linejoin="round"/></g>
    <g class="ray ray-long" style="transform-origin: 1950.721px 1646.456px"><path d="M1863.154,1710.076 L1137.338,526.936 L2038.288,1582.836 Z" fill="#1a1a1a" stroke="#1a1a1a" stroke-width="16" stroke-linejoin="round"/></g>
    <g class="ray ray-short" style="transform-origin: 2134.728px 1533.697px"><path d="M2038.288,1582.836 L1745.721,770.227 L2231.167,1484.557 Z" fill="#1a1a1a" stroke="#1a1a1a" stroke-width="16" stroke-linejoin="round"/></g>
    <g class="ray ray-long" style="transform-origin: 2334.109px 1451.112px"><path d="M2231.167,1484.557 L1906.492,135.037 L2437.05,1417.667 Z" fill="#1a1a1a" stroke="#1a1a1a" stroke-width="16" stroke-linejoin="round"/></g>
    <g class="ray ray-short" style="transform-origin: 2543.957px 1400.734px"><path d="M2437.05,1417.667 L2409.913,554.421 L2650.863,1383.8 Z" fill="#1a1a1a" stroke="#1a1a1a" stroke-width="16" stroke-linejoin="round"/></g>
  </g>
</svg>
